<svg width="13" height="13" viewBox="0 0 13 13" fill="none" xmlns="http://www.w3.org/2000/svg">
<path d="M6.63566 1.0837H6.03983C5.86108 0.460781 5.28692 0.000366211 4.60442 0.000366211C3.92192 0.000366211 3.34776 0.460781 3.16901 1.0837H2.57318C2.3511 1.0837 2.16693 1.26786 2.16693 1.48994V2.30244C2.16693 2.82244 2.59485 3.25035 3.11484 3.25035H6.094C6.614 3.25035 7.04191 2.82244 7.04191 2.30244V1.48994C7.04191 1.26786 6.85775 1.0837 6.63566 1.0837Z" fill="white"/>
<path d="M7.71799 1.62555H7.58257V2.30263C7.58257 3.12596 6.91632 3.79221 6.09299 3.79221H3.11384C2.29051 3.79221 1.62426 3.12596 1.62426 2.30263V1.62555H1.48885C0.665515 1.62555 -0.000732422 2.2918 -0.000732422 3.11513V9.88593C-0.000732422 10.7093 0.665515 11.3755 1.48885 11.3755H5.48633L5.6055 10.7093C5.65966 10.4059 5.8005 10.1351 6.01716 9.91302L6.45049 9.47968H2.03051C1.80843 9.47968 1.62426 9.29552 1.62426 9.07344C1.62426 8.85135 1.80843 8.66719 2.03051 8.66719H7.17632C7.20341 8.66719 7.22507 8.66719 7.25216 8.67802H7.25757L9.20757 6.72803V3.11513C9.20757 2.2918 8.54132 1.62555 7.71799 1.62555ZM7.17632 7.71927H2.03051C1.80843 7.71927 1.62426 7.53511 1.62426 7.31303C1.62426 7.09094 1.80843 6.90678 2.03051 6.90678H7.17632C7.39841 6.90678 7.58257 7.09094 7.58257 7.31303C7.58257 7.53511 7.39841 7.71927 7.17632 7.71927ZM7.17632 5.95887H2.03051C1.80843 5.95887 1.62426 5.7747 1.62426 5.55262C1.62426 5.33053 1.80843 5.14637 2.03051 5.14637H7.17632C7.39841 5.14637 7.58257 5.33053 7.58257 5.55262C7.58257 5.7747 7.39841 5.95887 7.17632 5.95887Z" fill="white"/>
<path d="M6.78598 12.9996C6.67927 12.9996 6.57527 12.9573 6.4989 12.8804C6.40519 12.7867 6.36294 12.6534 6.38623 12.5223L6.67332 10.8946C6.6874 10.8129 6.72748 10.737 6.78598 10.678L10.8078 6.65666C11.3018 6.16158 11.7872 6.29537 12.0526 6.56079L12.7226 7.23083C13.0926 7.60024 13.0926 8.20149 12.7226 8.57145L8.70077 12.5933C8.64227 12.6523 8.56643 12.6919 8.4841 12.706L6.8564 12.9931C6.83311 12.9974 6.80927 12.9996 6.78598 12.9996ZM8.41368 12.3062H8.4191H8.41368Z" fill="white"/>
</svg>
